<svg width="23" height="23" viewBox="0 0 23 23" fill="none" xmlns="http://www.w3.org/2000/svg">
<path d="M11.5 12.788C8.924 12.788 6.854 10.718 6.854 8.14197C6.854 5.56597 8.924 3.49597 11.5 3.49597C14.076 3.49597 16.146 5.56597 16.146 8.14197C16.146 10.718 14.076 12.788 11.5 12.788ZM11.5 5.33597C9.936 5.33597 8.694 6.57797 8.694 8.14197C8.694 9.70597 9.936 10.948 11.5 10.948C13.064 10.948 14.306 9.70597 14.306 8.14197C14.306 6.57797 13.064 5.33597 11.5 5.33597Z" fill="black"/>
<path d="M11.5 22.54C11.178 22.54 10.902 22.402 10.764 22.126C10.028 21.114 3.81799 12.098 3.81799 8.14196C3.81799 3.90996 7.26799 0.459961 11.5 0.459961C15.732 0.459961 19.182 3.90996 19.182 8.14196C19.182 12.052 12.926 21.114 12.236 22.126C12.098 22.402 11.822 22.54 11.5 22.54ZM11.5 2.29996C8.27999 2.29996 5.65799 4.92196 5.65799 8.14196C5.65799 10.626 9.38399 16.744 11.5 19.964C13.616 16.744 17.342 10.626 17.342 8.14196C17.342 4.92196 14.72 2.29996 11.5 2.29996Z" fill="black"/>
</svg>
