<svg width="32" height="32" viewBox="0 0 32 32" fill="none" xmlns="http://www.w3.org/2000/svg">
<g clip-path="url(#clip0_2314_80)">
<path d="M15.9999 11.4052C18.9059 11.4052 20.9339 8.15216 20.9339 5.23216C20.9339 2.29416 18.8579 0.160156 15.9999 0.160156C13.1409 0.160156 11.0659 2.29416 11.0659 5.23216C11.0659 8.15216 13.0919 11.4052 15.9999 11.4052ZM14.7619 1.78816C14.2459 2.87116 13.9919 4.16516 15.0119 4.88116C15.9099 5.51316 17.1509 5.40416 17.8189 4.52516C18.4789 3.65516 17.7559 2.51916 16.7939 2.38516C16.0499 2.28116 15.7259 3.42316 16.4809 3.52716C16.9459 3.59216 16.9929 3.93816 16.5159 4.08716C15.9159 4.27316 15.4849 3.84916 15.5159 3.30016C15.5449 2.72816 15.8699 2.11916 16.2109 1.60216C18.1909 1.70116 19.5119 3.12816 19.5119 5.23416C19.5119 7.67616 17.8049 9.98616 15.9999 9.98616C14.1929 9.98616 12.4859 7.67616 12.4859 5.23416C12.4859 3.51516 13.3689 2.25416 14.7619 1.78816Z" fill="#3B4551"/>
<path d="M19.8009 11.2451C18.644 11.9095 17.3331 12.2591 15.9989 12.2591C14.6648 12.2591 13.3539 11.9095 12.1969 11.2451C10.8919 10.4931 2.32194 16.0651 3.71294 17.8511C4.99994 19.5051 7.61494 16.1011 10.3789 14.9771C10.3789 14.9771 8.61694 22.0991 11.1109 29.5201C11.1109 29.5201 9.29694 29.5991 9.15594 30.7951C9.01694 31.9911 10.9329 31.8331 13.4059 31.8331C14.6619 31.8331 14.7709 30.7781 14.8179 29.6391V25.5311C14.8179 25.5311 14.7829 24.4131 15.9999 24.4131C17.2169 24.4131 17.1819 25.5311 17.1819 25.5311V29.6391C17.2269 30.7791 17.3359 31.8331 18.5939 31.8331C21.0669 31.8331 22.9809 31.9911 22.8419 30.7951C22.7009 29.5991 20.8889 29.5201 20.8889 29.5201C23.3809 22.0991 21.6209 14.9771 21.6209 14.9771C24.3829 16.1011 26.9999 19.5051 28.2869 17.8511C29.6779 16.0651 21.1069 10.4931 19.8009 11.2451ZM15.9999 21.1611C15.8289 21.1661 15.6586 21.1368 15.4991 21.0748C15.3397 21.0128 15.1942 20.9195 15.0714 20.8004C14.9486 20.6812 14.8509 20.5387 14.7842 20.3811C14.7174 20.2236 14.6829 20.0543 14.6827 19.8832C14.6825 19.7121 14.7166 19.5427 14.783 19.385C14.8494 19.2273 14.9467 19.0845 15.0693 18.9651C15.1918 18.8457 15.337 18.752 15.4963 18.6897C15.6557 18.6273 15.8259 18.5976 15.9969 18.6021C16.3301 18.6111 16.6467 18.7496 16.8793 18.9882C17.1119 19.2269 17.2423 19.5469 17.2427 19.8802C17.2431 20.2135 17.1135 20.5338 16.8814 20.773C16.6493 21.0122 16.3331 21.1514 15.9999 21.1611ZM15.9999 16.5811C15.8277 16.5882 15.6559 16.5604 15.4947 16.4995C15.3335 16.4385 15.1862 16.3456 15.0618 16.2264C14.9374 16.1072 14.8383 15.964 14.7705 15.8055C14.7027 15.6471 14.6677 15.4766 14.6674 15.3042C14.6671 15.1319 14.7017 14.9612 14.7689 14.8026C14.8362 14.6439 14.9348 14.5004 15.0589 14.3808C15.183 14.2612 15.3299 14.1678 15.4909 14.1064C15.652 14.0449 15.8237 14.0166 15.9959 14.0231C16.3243 14.0385 16.6342 14.1797 16.8614 14.4174C17.0885 14.655 17.2155 14.971 17.216 15.2997C17.2165 15.6285 17.0905 15.9448 16.8641 16.1832C16.6377 16.4216 16.3283 16.5647 15.9999 16.5811Z" fill="#3B4551"/>
</g>
<defs>
<clipPath id="clip0_2314_80">
<rect width="32" height="32" fill="white"/>
</clipPath>
</defs>
</svg>
