<svg width="32" height="32" viewBox="0 0 32 32" fill="none" xmlns="http://www.w3.org/2000/svg">
<g clip-path="url(#clip0_2314_65)">
<path d="M14.205 6.66016C12.209 6.66016 5.97998 18.6442 5.97998 23.1852C5.97998 27.7262 9.66398 31.4082 14.205 31.4082C18.746 31.4082 22.428 27.7262 22.428 23.1852C22.428 18.6442 16.197 6.66016 14.205 6.66016ZM13.652 29.6232C10.438 29.0002 7.86698 26.3112 7.91798 22.9322C7.94698 21.0742 10.831 21.0712 10.801 22.9322C10.799 23.0632 10.871 23.6372 10.813 23.2912C10.877 23.6702 10.963 24.1452 11.112 24.4592C11.776 25.8852 12.897 26.5472 14.419 26.8442C16.244 27.1992 15.469 29.9772 13.652 29.6232Z" fill="#3B4551"/>
<path d="M26.6349 0.591797C25.3709 0.591797 21.4259 8.1798 21.4259 11.0568C21.4526 12.4201 22.013 13.7186 22.9866 14.6733C23.9602 15.628 25.2693 16.1627 26.6329 16.1627C27.9965 16.1627 29.3057 15.628 30.2793 14.6733C31.2529 13.7186 31.8132 12.4201 31.8399 11.0568C31.8399 8.1798 27.8959 0.591797 26.6349 0.591797ZM26.2849 15.1328C24.2479 14.7378 22.6209 13.0348 22.6539 10.8948C22.6719 9.7168 24.4979 9.7148 24.4779 10.8948C24.4779 10.9788 24.5229 11.3418 24.4859 11.1238C24.5269 11.3638 24.5819 11.6648 24.6739 11.8638C25.0979 12.7658 25.8049 13.1838 26.7699 13.3738C27.9259 13.5978 27.4359 15.3568 26.2849 15.1328ZM4.30191 0.591797C3.29691 0.591797 0.159912 6.6268 0.159912 8.9118C0.159912 10.0101 0.596195 11.0633 1.37278 11.8399C2.14937 12.6165 3.20265 13.0528 4.30091 13.0528C5.39917 13.0528 6.45245 12.6165 7.22904 11.8399C8.00563 11.0633 8.44191 10.0101 8.44191 8.9118C8.44091 6.6268 5.30491 0.591797 4.30191 0.591797ZM4.02291 12.1558C2.40491 11.8418 1.10891 10.4858 1.13391 8.7848C1.14991 7.8468 2.60191 7.8468 2.58691 8.7848C2.58491 8.8508 2.62191 9.1398 2.59291 8.9648C2.62391 9.1578 2.66891 9.3968 2.74291 9.5548C3.07691 10.2718 3.63991 10.6058 4.40791 10.7538C5.32791 10.9318 4.93791 12.3318 4.02291 12.1558Z" fill="#118ACB"/>
</g>
<defs>
<clipPath id="clip0_2314_65">
<rect width="32" height="32" fill="white"/>
</clipPath>
</defs>
</svg>
