<svg width="25" height="24" viewBox="0 0 25 24" fill="none" xmlns="http://www.w3.org/2000/svg">
<path d="M20.3126 3.55114C18.3565 1.64708 15.7219 0.52462 12.9387 0.409479C10.1556 0.294339 7.43021 1.19506 5.31069 2.9305C3.19116 4.66595 1.83467 7.10743 1.51399 9.76397C1.19331 12.4205 1.93222 15.0951 3.58214 17.2499V21.5324C3.57917 21.9198 3.694 22.2997 3.91256 22.6254C4.13112 22.9511 4.44392 23.2085 4.81261 23.3661C5.18086 23.5218 5.58741 23.5744 5.98546 23.518C6.38351 23.4616 6.75688 23.2985 7.06261 23.0474L9.3048 21.1724C10.3417 21.469 11.4182 21.6181 12.5001 21.6149C14.6815 21.6179 16.8148 20.9996 18.6299 19.8382C20.445 18.6767 21.8604 17.0244 22.6969 15.0903C23.5334 13.1563 23.7533 11.0275 23.3289 8.97338C22.9044 6.91928 21.8547 5.03224 20.3126 3.55114ZM12.5001 19.9311C11.2265 19.927 9.96744 19.6717 8.80089 19.1811L5.82433 21.6824C5.79264 21.7105 5.75298 21.7291 5.71035 21.7356C5.66773 21.7422 5.62403 21.7365 5.58477 21.7192C5.54551 21.702 5.51244 21.674 5.48973 21.6387C5.46702 21.6035 5.45568 21.5626 5.45714 21.5211V16.8111L5.38683 16.7324C4.03698 15.1782 3.27948 13.2286 3.23936 11.2055C3.19924 9.18228 3.87889 7.20644 5.16614 5.60405C6.45338 4.00167 8.27128 2.86853 10.3198 2.39166C12.3683 1.91479 14.5249 2.1227 16.4337 2.98107C18.3425 3.83944 19.8894 5.29696 20.8191 7.11307C21.7487 8.92917 22.0056 10.9953 21.5472 12.9704C21.0888 14.9455 19.9427 16.7116 18.2979 17.9771C16.6531 19.2426 14.608 19.9318 12.5001 19.9311Z" fill="#3B4551"/>
<path d="M14.9405 6.13758C15.038 5.27903 14.392 4.50718 13.4977 4.41361C12.6034 4.32004 11.7993 4.94018 11.7019 5.79873C11.6044 6.65728 12.2504 7.42913 13.1447 7.5227C14.039 7.61627 14.843 6.99613 14.9405 6.13758Z" fill="#118ACB"/>
<path d="M15.1173 16.5562C14.7728 17.0639 14.2504 17.4364 13.6446 17.6062C13.3262 17.6799 12.9944 17.6823 12.6748 17.6133C12.3553 17.5442 12.0565 17.4056 11.8017 17.2081C11.5468 17.0105 11.3427 16.7594 11.2051 16.4741C11.0674 16.1887 11 15.8768 11.0079 15.5625C11.0079 15.52 11.0079 15.4787 11.0079 15.4387C11.0079 15.4387 11.7501 10.125 11.7579 10.0387C11.8594 9.13125 10.6173 8.94375 9.961 8.91375C9.93842 8.91393 9.91648 8.90659 9.8989 8.89298C9.88133 8.87938 9.86921 8.86034 9.8646 8.83912C9.86 8.8179 9.86319 8.79581 9.87365 8.7766C9.8841 8.75738 9.90117 8.74224 9.92194 8.73375C10.4417 8.48089 10.9877 8.28105 11.5508 8.1375C11.865 8.06743 12.1917 8.06745 12.5059 8.13756C12.82 8.20768 13.1133 8.34602 13.363 8.54196C13.6128 8.73789 13.8124 8.9862 13.9465 9.26778C14.0807 9.54937 14.1457 9.85674 14.1368 10.1662C14.1368 10.2088 14.1368 10.25 14.1368 10.29L13.3946 15.69C13.2813 16.68 14.4962 16.5262 15.0235 16.4137C15.0417 16.4118 15.0601 16.4148 15.0766 16.4225C15.0931 16.4301 15.107 16.442 15.1168 16.4569C15.1265 16.4717 15.1318 16.4889 15.1319 16.5065C15.1319 16.5241 15.1269 16.5413 15.1173 16.5562Z" fill="#118ACB"/>
</svg>
