<svg width="32" height="32" viewBox="0 0 32 32" fill="none" xmlns="http://www.w3.org/2000/svg">
<g clip-path="url(#clip0_2314_72)">
<g clip-path="url(#clip1_2314_72)">
<path d="M31.493 5.32615L26.876 0.70915C26.6545 0.487694 26.3542 0.363281 26.041 0.363281C25.7278 0.363281 25.4275 0.487694 25.206 0.70915C24.9845 0.930605 24.8601 1.23096 24.8601 1.54415C24.8601 1.85734 24.9845 2.15769 25.206 2.37915L25.585 2.75815L23.621 4.72215L21.957 3.05815C21.8474 2.9485 21.7172 2.86151 21.5739 2.80217C21.4306 2.74283 21.2771 2.71228 21.122 2.71228C20.9669 2.71228 20.8134 2.74283 20.6701 2.80217C20.5268 2.86151 20.3967 2.9485 20.287 3.05815C20.1774 3.1678 20.0904 3.29798 20.031 3.44125C19.9717 3.58452 19.9411 3.73808 19.9411 3.89315C19.9411 4.04822 19.9717 4.20178 20.031 4.34505C20.0904 4.48832 20.1774 4.6185 20.287 4.72815L20.456 4.89815L8.843 16.5111C8.47423 16.8803 8.26709 17.3808 8.26709 17.9026C8.26709 18.4245 8.47423 18.925 8.843 19.2941L12.813 23.2641C13.185 23.6361 13.679 23.8411 14.205 23.8411C14.731 23.8411 15.226 23.6361 15.598 23.2641L27.21 11.6501L27.379 11.8191C27.4885 11.9289 27.6186 12.0159 27.7618 12.0753C27.905 12.1347 28.0585 12.1653 28.2135 12.1653C28.3685 12.1653 28.522 12.1347 28.6652 12.0753C28.8084 12.0159 28.9385 11.9289 29.048 11.8191C29.1581 11.7098 29.2454 11.5797 29.3051 11.4364C29.3647 11.2932 29.3955 11.1395 29.3956 10.9844C29.3957 10.8292 29.3651 10.6755 29.3056 10.5322C29.2461 10.3888 29.1589 10.2587 29.049 10.1491L27.385 8.48615L29.349 6.52115L29.824 6.99615C30.0455 7.21746 30.3457 7.34186 30.6588 7.34205C30.9719 7.34224 31.2723 7.2182 31.494 6.99715C31.955 6.53515 31.954 5.78715 31.493 5.32615ZM14.669 22.3351C14.5442 22.4549 14.378 22.5218 14.205 22.5218C14.032 22.5218 13.8658 22.4549 13.741 22.3351L9.77 18.3651C9.64745 18.242 9.57864 18.0754 9.57864 17.9016C9.57864 17.7279 9.64745 17.5613 9.77 17.4381L21.384 5.82515L21.95 6.39115L19.313 9.03015L18.988 9.35515L17.909 10.4331L17.676 10.6662L17.274 11.0691L17.575 11.3721L20.735 14.5311L21.038 14.8341L21.441 14.4311L21.674 14.1981L22.752 13.1201L23.078 12.7941L25.716 10.1551L26.283 10.7221L14.669 22.3351Z" fill="#3B4551"/>
<path d="M10.9889 17.3538C10.9101 17.4324 10.8476 17.5257 10.8049 17.6285C10.7623 17.7313 10.7403 17.8415 10.7403 17.9528C10.7403 18.0641 10.7623 18.1743 10.8049 18.277C10.8476 18.3798 10.9101 18.4732 10.9889 18.5518L13.5529 21.1178C13.7119 21.2767 13.9276 21.366 14.1524 21.366C14.3773 21.366 14.5929 21.2767 14.7519 21.1178L15.2169 20.6538L13.8039 19.2408L14.4419 18.6028L15.8539 20.0148L17.0339 18.8358L15.6219 17.4228L16.2599 16.7848L17.6729 18.1968L18.8519 17.0178L17.4399 15.6048L18.0779 14.9678L19.4899 16.3788L20.5529 15.3158L16.7879 11.5508L10.9889 17.3538ZM6.99891 21.5598L6.08491 22.9688C5.74491 23.4918 5.82791 24.2848 6.27091 24.7288L6.33191 24.7898L0.159912 30.9618L1.45491 31.6388L7.31791 25.7758L7.38091 25.8378C7.82291 26.2808 8.61491 26.3628 9.13991 26.0238L9.71291 25.6518L12.4159 23.8988L8.20991 19.6918L6.99891 21.5598Z" fill="#118ACB"/>
</g>
</g>
<defs>
<clipPath id="clip0_2314_72">
<rect width="32" height="32" fill="white"/>
</clipPath>
<clipPath id="clip1_2314_72">
<rect width="32" height="32" fill="white"/>
</clipPath>
</defs>
</svg>
