<svg width="25" height="24" viewBox="0 0 25 24" fill="none" xmlns="http://www.w3.org/2000/svg">
<path d="M16.8789 0.296143C15.6497 0.296143 14.4482 0.646057 13.4261 1.30164C12.4041 1.95722 11.6075 2.88902 11.1371 3.97921C10.6668 5.0694 10.5437 6.26901 10.7835 7.42635C11.0233 8.58369 11.6152 9.64677 12.4844 10.4812C13.3535 11.3156 14.4609 11.8838 15.6665 12.114C16.872 12.3442 18.1216 12.2261 19.2572 11.7745C20.3928 11.3229 21.3635 10.5582 22.0464 9.57706C22.7293 8.59592 23.0938 7.44241 23.0938 6.26239C23.0938 4.68005 22.439 3.16251 21.2735 2.04362C20.108 0.924728 18.5272 0.296143 16.8789 0.296143ZM18.6719 8.96614C18.3491 9.31124 17.9213 9.55002 17.4492 9.64864V10.2111C17.4506 10.3537 17.3951 10.4914 17.2941 10.5959C17.1932 10.7005 17.0544 10.7641 16.9063 10.7736C16.8289 10.7772 16.7516 10.7657 16.679 10.7398C16.6064 10.7139 16.54 10.6742 16.4838 10.6231C16.4276 10.5719 16.3828 10.5104 16.352 10.4422C16.3212 10.374 16.3051 10.3005 16.3047 10.2261V9.70864C15.9741 9.68333 15.6484 9.61651 15.3359 9.50989C15.2553 9.4822 15.1816 9.4386 15.1196 9.38191C15.0576 9.32523 15.0087 9.2567 14.9759 9.18075C14.9432 9.10481 14.9274 9.02312 14.9295 8.94094C14.9316 8.85877 14.9516 8.77794 14.9883 8.70364C15.0541 8.56743 15.1716 8.4605 15.3169 8.40473C15.4621 8.34897 15.624 8.34858 15.7695 8.40364C16.0693 8.51183 16.3868 8.5677 16.707 8.56864C17.3359 8.56864 17.7734 8.23864 17.7734 7.76239C17.7734 7.28614 17.457 7.01239 16.6875 6.72364C15.6797 6.34864 14.7344 5.83864 14.7344 4.70989C14.7364 4.26195 14.9021 3.82889 15.2026 3.48623C15.5032 3.14357 15.9195 2.91306 16.3789 2.83489V2.30989C16.3776 2.16832 16.4326 2.03162 16.5329 1.92775C16.6331 1.82388 16.7708 1.7607 16.918 1.75114C16.9946 1.74759 17.0712 1.75902 17.1431 1.78475C17.215 1.81048 17.2808 1.84997 17.3363 1.90082C17.3918 1.95167 17.436 2.01282 17.4661 2.08056C17.4963 2.1483 17.5118 2.22122 17.5117 2.29489V2.77864C17.7407 2.79633 17.9671 2.83654 18.1875 2.89864C18.271 2.92064 18.3486 2.95969 18.4149 3.01312C18.4813 3.06655 18.5348 3.1331 18.5719 3.20823C18.609 3.28335 18.6288 3.36528 18.6298 3.44841C18.6309 3.53154 18.6133 3.61391 18.5781 3.68989C18.5164 3.81976 18.407 3.92326 18.2708 3.98066C18.1347 4.03807 17.9812 4.04536 17.8398 4.00114C17.5874 3.92382 17.3236 3.88584 17.0586 3.88864C16.375 3.88864 16.1328 4.26364 16.1328 4.56739C16.1328 4.94239 16.4141 5.18614 17.3398 5.55739C18.6211 6.05989 19.168 6.68239 19.168 7.67239C19.1733 8.14743 18.9968 8.60781 18.6719 8.96614Z" fill="#118ACB"/>
<path d="M23.1758 13.575L16.3477 19.5263C15.6109 20.1726 14.6676 20.56 13.6719 20.625L9.12109 20.94L6.83984 15.6525L8.1875 14.9025C8.62031 14.6545 9.10688 14.5056 9.60937 14.4675C9.98864 14.439 10.3701 14.4784 10.7344 14.5838C10.9023 14.6325 16.082 13.53 16.082 13.53C16.2471 13.4922 16.4211 13.5176 16.567 13.601C16.7128 13.6843 16.8191 13.8189 16.8633 13.9763C16.9036 14.1255 16.8863 14.2837 16.8145 14.4216C16.7427 14.5595 16.6212 14.6677 16.4727 14.7263L12.5234 16.4738C12.4551 16.4998 12.4002 16.5504 12.3703 16.6148C12.3404 16.6792 12.3379 16.7523 12.3634 16.8185C12.3889 16.8846 12.4404 16.9386 12.5068 16.9687C12.5732 16.9989 12.6493 17.003 12.7188 16.98L17.2617 15.75C17.3591 15.73 17.451 15.6904 17.5312 15.6337L22.2656 12.5363C22.4091 12.4199 22.5949 12.363 22.782 12.3781C22.9692 12.3932 23.1425 12.4791 23.2637 12.6169C23.3849 12.7546 23.4441 12.933 23.4284 13.1126C23.4126 13.2923 23.3232 13.4586 23.1797 13.575H23.1758Z" fill="#3B4551"/>
<path d="M4.84466 15.3044L1.89979 16.4754C1.64865 16.5753 1.5294 16.8517 1.63342 17.0928L4.36004 23.4121C4.46406 23.6532 4.75198 23.7677 5.00311 23.6678L7.94798 22.4968C8.19912 22.397 8.31837 22.1206 8.21435 21.8795L5.48773 15.5601C5.38371 15.319 5.09579 15.2046 4.84466 15.3044Z" fill="#3B4551"/>
</svg>
