<svg width="25" height="24" viewBox="0 0 25 24" fill="none" xmlns="http://www.w3.org/2000/svg">
<g clip-path="url(#clip0_0_14)">
<path d="M24.1796 11.0812C23.997 8.94158 23.1805 6.89683 21.8265 5.18832C20.4725 3.4798 18.6376 2.17886 16.5383 1.43908C14.4391 0.699304 12.1632 0.551574 9.97934 1.01333C7.79548 1.47509 5.79483 2.52706 4.21359 4.04505C2.63236 5.56304 1.53656 7.48366 1.05556 9.58016C0.574556 11.6767 0.728441 13.8615 1.49905 15.8768C2.26965 17.8921 3.6248 19.6536 5.4045 20.9534C7.1842 22.2532 9.31415 23.0371 11.5429 23.2124C13.2355 23.3373 14.9363 23.1092 16.5285 22.5437C18.1207 21.9782 19.5666 21.0887 20.767 19.9363C21.9674 18.7839 22.8939 17.3958 23.483 15.8673C24.072 14.3389 24.3097 12.7061 24.1796 11.0812ZM17.7148 12.7499C17.5077 13.1587 17.2773 13.5562 17.0312 13.9499L13.3241 19.3312C13.2387 19.4695 13.1173 19.5842 12.9718 19.6638C12.8262 19.7434 12.6616 19.7853 12.4941 19.7853C12.3265 19.7853 12.1619 19.7434 12.0164 19.6638C11.8708 19.5842 11.7494 19.4695 11.664 19.3312L7.96085 13.9537C7.7133 13.5637 7.48645 13.1619 7.28116 12.7499C6.84215 11.8452 6.62309 10.8566 6.64054 9.85867C6.64111 9.6343 6.65545 9.41016 6.68351 9.18742C6.77675 7.69557 7.48349 6.30039 8.64827 5.30879C9.81305 4.31719 11.3404 3.81041 12.8944 3.89992C14.4484 3.98943 15.9018 4.6679 16.9347 5.78609C17.9676 6.90428 18.4955 8.37057 18.4023 9.86242C18.407 10.8628 18.1717 11.8508 17.7148 12.7499Z" fill="#3B4551"/>
<path d="M12.5 6.60742C11.6096 6.6141 10.7571 6.95406 10.1239 7.55497C9.49063 8.15588 9.12665 8.9703 9.10938 9.82492C9.10937 9.82492 9.10938 9.84742 9.10938 9.85492C9.11428 10.4017 9.2616 10.9386 9.53792 11.4167C9.81424 11.8949 10.2108 12.299 10.6914 12.5924C11.2282 12.9284 11.8553 13.1073 12.4961 13.1073C13.1369 13.1073 13.7639 12.9284 14.3008 12.5924C14.7812 12.2988 15.1775 11.8946 15.4538 11.4165C15.7301 10.9384 15.8776 10.4016 15.8828 9.85492C15.8828 9.85492 15.8828 9.83242 15.8828 9.82117C15.8597 8.97 15.4949 8.16033 14.8644 7.56141C14.234 6.96249 13.3868 6.62068 12.5 6.60742Z" fill="#3B4551"/>
</g>
<defs>
<clipPath id="clip0_0_14">
<rect width="25" height="24" fill="white"/>
</clipPath>
</defs>
</svg>
