<svg width="25" height="24" viewBox="0 0 25 24" fill="none" xmlns="http://www.w3.org/2000/svg">
<g clip-path="url(#clip0_0_8)">
<path d="M23.5664 7.50008C22.4063 4.85657 20.2646 2.72108 17.5568 1.50808C14.849 0.295084 11.7684 0.0910852 8.91281 0.935679C6.05721 1.78027 3.6303 3.61322 2.10309 6.07878C0.575882 8.54435 0.0573063 11.4667 0.648006 14.2786C1.23871 17.0905 2.89655 19.5915 5.29979 21.2961C7.70303 23.0008 10.6802 23.7875 13.6536 23.5036C16.627 23.2197 19.3845 21.8854 21.3909 19.7597C23.3973 17.6341 24.5096 14.8686 24.5117 12.0001C24.5149 10.4543 24.1934 8.92383 23.5664 7.50008ZM22.6133 11.0251C22.5704 11.0722 22.5176 11.1099 22.4583 11.1358C22.399 11.1616 22.3347 11.175 22.2696 11.1751H21.875C21.6497 11.1751 21.4336 11.261 21.2743 11.414C21.1149 11.5669 21.0254 11.7744 21.0254 11.9907C21.0254 12.207 21.1149 12.4145 21.2743 12.5674C21.4336 12.7204 21.6497 12.8063 21.875 12.8063H22.2656C22.3308 12.8064 22.3951 12.8198 22.4544 12.8457C22.5137 12.8715 22.5665 12.9093 22.6094 12.9563C22.6522 13.0023 22.6841 13.0566 22.703 13.1155C22.7219 13.1744 22.7272 13.2365 22.7188 13.2976C22.4728 15.0714 21.7288 16.7475 20.5664 18.1463C20.5262 18.1946 20.4758 18.2342 20.4186 18.2626C20.3614 18.291 20.2987 18.3076 20.2344 18.3113C20.1703 18.3152 20.1061 18.3058 20.0462 18.2838C19.9862 18.2618 19.9318 18.2277 19.8867 18.1838L19.586 17.8951C19.4239 17.7465 19.2085 17.6637 18.9844 17.6637C18.7603 17.6637 18.5449 17.7465 18.3828 17.8951C18.3035 17.9707 18.2405 18.0607 18.1975 18.1598C18.1545 18.2589 18.1324 18.3652 18.1324 18.4726C18.1324 18.5799 18.1545 18.6862 18.1975 18.7854C18.2405 18.8845 18.3035 18.9744 18.3828 19.0501L18.6485 19.3051C18.6944 19.3496 18.7299 19.4031 18.7525 19.462C18.7752 19.5208 18.7844 19.5836 18.7796 19.6462C18.7747 19.7087 18.756 19.7696 18.7247 19.8246C18.6933 19.8796 18.65 19.9275 18.5977 19.9651C17.2076 20.9529 15.5807 21.5887 13.8672 21.8138C13.8024 21.8223 13.7364 21.8173 13.6737 21.7992C13.611 21.7811 13.5531 21.7503 13.5039 21.7088C13.4545 21.668 13.4149 21.6173 13.3879 21.5604C13.361 21.5034 13.3472 21.4414 13.3477 21.3788V21.0001C13.3477 20.7838 13.2582 20.5763 13.0988 20.4234C12.9395 20.2704 12.7234 20.1845 12.4981 20.1845C12.2727 20.1845 12.0566 20.2704 11.8973 20.4234C11.738 20.5763 11.6485 20.7838 11.6485 21.0001V21.3751C11.6489 21.4377 11.6352 21.4996 11.6082 21.5566C11.5812 21.6136 11.5416 21.6643 11.4922 21.7051C11.4428 21.7461 11.3848 21.7767 11.3222 21.7948C11.2596 21.8129 11.1938 21.8181 11.1289 21.8101C9.41685 21.5894 7.7901 20.9588 6.39846 19.9763C6.34617 19.9387 6.30287 19.8908 6.2715 19.8358C6.24012 19.7808 6.2214 19.72 6.21658 19.6574C6.21177 19.5949 6.22098 19.5321 6.2436 19.4732C6.26621 19.4144 6.30171 19.3609 6.34768 19.3163L6.61331 19.0613C6.69231 18.9855 6.75497 18.8955 6.79772 18.7964C6.84048 18.6973 6.86248 18.5911 6.86248 18.4838C6.86248 18.3766 6.84048 18.2704 6.79772 18.1713C6.75497 18.0722 6.69231 17.9822 6.61331 17.9063C6.53431 17.8305 6.44053 17.7703 6.33731 17.7293C6.23409 17.6882 6.12347 17.6671 6.01175 17.6671C5.90003 17.6671 5.7894 17.6882 5.68618 17.7293C5.58297 17.7703 5.48918 17.8305 5.41018 17.9063L5.1094 18.1951C5.06446 18.2392 5.01012 18.2734 4.95011 18.2954C4.8901 18.3174 4.82584 18.3267 4.76175 18.3226C4.69679 18.3194 4.63328 18.303 4.57538 18.2746C4.51748 18.2462 4.46651 18.2063 4.42581 18.1576C3.26502 16.7582 2.52239 15.0822 2.27737 13.3088C2.2689 13.2477 2.27429 13.1856 2.29317 13.1267C2.31205 13.0678 2.34397 13.0135 2.38675 12.9676C2.4296 12.9205 2.48245 12.8828 2.54173 12.8569C2.60102 12.831 2.66537 12.8176 2.7305 12.8176H3.12503C3.35036 12.8176 3.56646 12.7317 3.72579 12.5787C3.88512 12.4257 3.97464 12.2183 3.97464 12.002C3.97464 11.7856 3.88512 11.5782 3.72579 11.4252C3.56646 11.2723 3.35036 11.1863 3.12503 11.1863H2.7344C2.66928 11.1863 2.60492 11.1729 2.54564 11.147C2.48635 11.1211 2.43351 11.0834 2.39065 11.0363C2.34788 10.9904 2.31596 10.9361 2.29708 10.8772C2.2782 10.8183 2.27281 10.7562 2.28128 10.6951C2.52724 8.92132 3.27126 7.24521 4.43362 5.84633C4.47389 5.79809 4.52424 5.75848 4.58143 5.73007C4.63862 5.70165 4.70137 5.68505 4.76565 5.68133C4.8297 5.67775 4.89381 5.68726 4.95374 5.70924C5.01368 5.73122 5.06806 5.76517 5.11331 5.80883L5.41409 6.09758C5.57614 6.24613 5.79159 6.32901 6.01565 6.32901C6.23971 6.32901 6.45516 6.24613 6.61721 6.09758C6.77656 5.94432 6.86605 5.73663 6.86605 5.52008C6.86605 5.30354 6.77656 5.09585 6.61721 4.94258L6.35159 4.68758C6.30561 4.64303 6.27012 4.58953 6.2475 4.53069C6.22489 4.47185 6.21568 4.40904 6.22049 4.34649C6.2253 4.28394 6.24403 4.22311 6.2754 4.1681C6.30678 4.11309 6.35007 4.06517 6.40237 4.02758C7.79322 3.04241 9.42003 2.4092 11.1328 2.18633C11.1977 2.17784 11.2637 2.18282 11.3264 2.20094C11.389 2.21905 11.4469 2.24988 11.4961 2.29133C11.5456 2.33216 11.5851 2.38282 11.6121 2.43981C11.6391 2.4968 11.6528 2.55874 11.6524 2.62133V3.00008C11.6524 3.2164 11.7419 3.42386 11.9012 3.57682C12.0605 3.72978 12.2766 3.81571 12.502 3.81571C12.7273 3.81571 12.9434 3.72978 13.1027 3.57682C13.2621 3.42386 13.3516 3.2164 13.3516 3.00008V2.62508C13.3511 2.56249 13.3649 2.50055 13.3918 2.44356C13.4188 2.38657 13.4584 2.33591 13.5078 2.29508C13.557 2.25363 13.6149 2.2228 13.6776 2.20469C13.7403 2.18657 13.8063 2.18159 13.8711 2.19008C15.5832 2.41073 17.21 3.04133 18.6016 4.02383C18.6539 4.06142 18.6972 4.10934 18.7286 4.16435C18.7599 4.21936 18.7787 4.28019 18.7835 4.34274C18.7883 4.40529 18.7791 4.4681 18.7565 4.52694C18.7338 4.58578 18.6983 4.63928 18.6524 4.68383L18.3867 4.93883C18.3019 5.01338 18.2337 5.10364 18.1863 5.20417C18.1388 5.3047 18.113 5.41342 18.1105 5.52378C18.1079 5.63414 18.1287 5.74384 18.1715 5.84628C18.2144 5.94872 18.2784 6.04178 18.3597 6.11983C18.441 6.19788 18.5379 6.25932 18.6446 6.30044C18.7513 6.34155 18.8656 6.3615 18.9806 6.35907C19.0955 6.35664 19.2088 6.33189 19.3135 6.2863C19.4182 6.24072 19.5122 6.17525 19.5899 6.09383L19.8906 5.80508C19.9359 5.76142 19.9903 5.72747 20.0502 5.70549C20.1101 5.68351 20.1743 5.674 20.2383 5.67758C20.3033 5.68078 20.3668 5.69713 20.4247 5.72557C20.4826 5.75401 20.5335 5.79389 20.5742 5.84258C21.7364 7.24156 22.4804 8.91762 22.7266 10.6913C22.7351 10.7533 22.7294 10.8163 22.7098 10.8759C22.6903 10.9355 22.6573 10.9903 22.6133 11.0363V11.0251Z" fill="#3B4551"/>
<path d="M18.2344 11.0138C18.0693 11.0145 17.907 11.0538 17.7613 11.1283C17.6157 11.2028 17.4911 11.3102 17.3984 11.4413H14.1016C14.0236 11.2357 13.9034 11.0471 13.7483 10.8867C13.5931 10.7263 13.4061 10.5974 13.1982 10.5076C12.9903 10.4178 12.7657 10.3688 12.5378 10.3637C12.3099 10.3585 12.0832 10.3972 11.8711 10.4776L8.6875 7.42132C8.69245 7.36642 8.69245 7.31122 8.6875 7.25632C8.6875 7.06497 8.62839 6.87791 8.51765 6.7188C8.40691 6.5597 8.24952 6.43569 8.06536 6.36247C7.88121 6.28924 7.67857 6.27008 7.48307 6.30741C7.28758 6.34474 7.108 6.43689 6.96706 6.57219C6.82611 6.7075 6.73013 6.87989 6.69124 7.06757C6.65235 7.25525 6.67231 7.44978 6.74859 7.62657C6.82487 7.80335 6.95404 7.95446 7.11978 8.06077C7.28551 8.16708 7.48036 8.22382 7.67969 8.22382C7.73688 8.22843 7.79437 8.22843 7.85156 8.22382L10.9766 11.2238C10.8506 11.448 10.7808 11.6972 10.7727 11.9518C10.7646 12.2064 10.8184 12.4593 10.9298 12.6904C11.0413 12.9216 11.2074 13.1246 11.4148 13.2833C11.6223 13.4421 11.8654 13.5523 12.125 13.6051V19.1251C12.125 19.2245 12.1662 19.3199 12.2394 19.3902C12.3127 19.4606 12.412 19.5001 12.5156 19.5001C12.6192 19.5001 12.7186 19.4606 12.7918 19.3902C12.8651 19.3199 12.9063 19.2245 12.9063 19.1251V13.5863C13.1737 13.519 13.42 13.3902 13.6241 13.2113C13.8283 13.0323 13.9841 12.8084 14.0781 12.5588H17.3984C17.5011 12.6913 17.6373 12.7963 17.7942 12.8639C17.951 12.9315 18.1233 12.9595 18.2946 12.9452C18.4659 12.9308 18.6305 12.8746 18.7728 12.7819C18.9151 12.6893 19.0304 12.5632 19.1076 12.4157C19.1848 12.2682 19.2214 12.1042 19.2139 11.9392C19.2064 11.7743 19.1551 11.614 19.0648 11.4735C18.9746 11.333 18.8484 11.217 18.6982 11.1365C18.5481 11.0561 18.379 11.0138 18.207 11.0138H18.2344Z" fill="#118ACB"/>
</g>
<defs>
<clipPath id="clip0_0_8">
<rect width="25" height="24" fill="white"/>
</clipPath>
</defs>
</svg>
