<svg width="100" height="100" viewBox="0 0 100 100" fill="none" xmlns="http://www.w3.org/2000/svg">
<path d="M98.7656 28.4687V82.6562C98.7615 84.5612 98.0029 86.387 96.6559 87.734C95.3089 89.081 93.4831 89.8396 91.5781 89.8438H8.42188C6.5169 89.8396 4.69113 89.081 3.3441 87.734C1.99708 86.387 1.2385 84.5612 1.23438 82.6562V28.4687H7.15625V82.6562C7.15625 82.9919 7.28959 83.3138 7.52694 83.5512C7.76429 83.7885 8.08621 83.9219 8.42188 83.9219H91.5781C91.9138 83.9219 92.2357 83.7885 92.4731 83.5512C92.7104 83.3138 92.8437 82.9919 92.8437 82.6562V28.4687H98.7656ZM97.0625 12.6875C96.3892 11.8941 95.5512 11.2567 94.6069 10.8196C93.6625 10.3825 92.6344 10.1562 91.5938 10.1563H8.42188C6.5169 10.1604 4.69113 10.919 3.3441 12.266C1.99708 13.613 1.2385 15.4388 1.23438 17.3438V24.3906H98.7656V17.3438C98.7709 15.6383 98.1669 13.9871 97.0625 12.6875ZM62.6875 21.2812C61.8933 21.2812 61.1169 21.0457 60.4565 20.6045C59.7962 20.1633 59.2815 19.5361 58.9775 18.8023C58.6736 18.0686 58.5941 17.2612 58.749 16.4822C58.904 15.7033 59.2864 14.9877 59.848 14.4261C60.4096 13.8646 61.1251 13.4821 61.9041 13.3272C62.683 13.1722 63.4905 13.2517 64.2242 13.5557C64.958 13.8596 65.5851 14.3743 66.0264 15.0347C66.4676 15.695 66.7031 16.4714 66.7031 17.2656C66.7073 18.3279 66.2903 19.3486 65.5436 20.1042C64.7968 20.8598 63.781 21.2886 62.7187 21.2969L62.6875 21.2812ZM75.5 21.2812C74.7058 21.2812 73.9294 21.0457 73.269 20.6045C72.6087 20.1633 72.094 19.5361 71.79 18.8023C71.4861 18.0686 71.4066 17.2612 71.5615 16.4822C71.7165 15.7033 72.0989 14.9877 72.6605 14.4261C73.2221 13.8646 73.9376 13.4821 74.7166 13.3272C75.4955 13.1722 76.303 13.2517 77.0367 13.5557C77.7705 13.8596 78.3976 14.3743 78.8389 15.0347C79.2801 15.695 79.5156 16.4714 79.5156 17.2656C79.5198 18.3279 79.1028 19.3486 78.3561 20.1042C77.6093 20.8598 76.5935 21.2886 75.5312 21.2969L75.5 21.2812ZM88.3125 21.2812C87.5183 21.2812 86.7419 21.0457 86.0815 20.6045C85.4212 20.1633 84.9065 19.5361 84.6025 18.8023C84.2986 18.0686 84.2191 17.2612 84.374 16.4822C84.529 15.7033 84.9114 14.9877 85.473 14.4261C86.0346 13.8646 86.7501 13.4821 87.5291 13.3272C88.308 13.1722 89.1155 13.2517 89.8492 13.5557C90.583 13.8596 91.2101 14.3743 91.6514 15.0347C92.0926 15.695 92.3281 16.4714 92.3281 17.2656C92.3302 17.793 92.2283 18.3155 92.0284 18.8035C91.8285 19.2915 91.5345 19.7353 91.163 20.1097C90.7916 20.484 90.3501 20.7815 89.8636 20.9852C89.3772 21.1889 88.8555 21.2948 88.3281 21.2969L88.3125 21.2812Z" fill="#3B4551"/>
<path d="M70.0312 38.8906C68.9981 37.5459 67.6877 36.4393 66.1889 35.6461C64.6901 34.8529 63.0381 34.3917 61.3451 34.2939C59.6522 34.1961 57.9581 34.4639 56.3779 35.0791C54.7977 35.6943 53.3685 36.6426 52.1874 37.8594C51.5865 38.4051 50.8038 38.7074 49.9921 38.7074C49.1804 38.7074 48.3977 38.4051 47.7968 37.8594C45.5561 35.6324 42.5486 34.3466 39.3905 34.2656C37.5817 34.3217 35.8066 34.77 34.188 35.5793C32.5693 36.3886 31.1457 37.5397 30.0155 38.9531C23.8749 46.1094 25.7968 55.9375 31.578 62.6406C35.578 67.3281 44.2655 73.9375 48.1249 76.8125C48.6828 77.2272 49.3594 77.4512 50.0546 77.4512C50.7497 77.4512 51.4264 77.2272 51.9843 76.8125C55.8593 73.9375 64.4843 67.2812 68.5312 62.6406C74.2499 55.875 76.1718 46.0469 70.0312 38.8906Z" fill="#118ACB"/>
</svg>
