<svg width="24" height="24" viewBox="0 0 24 24" fill="none" xmlns="http://www.w3.org/2000/svg">
<path d="M20 2H4C3.46957 2 2.96086 2.21071 2.58579 2.58579C2.21071 2.96086 2 3.46957 2 4V20C2 20.5304 2.21071 21.0391 2.58579 21.4142C2.96086 21.7893 3.46957 22 4 22H20C20.5304 22 21.0391 21.7893 21.4142 21.4142C21.7893 21.0391 22 20.5304 22 20V4C22 3.46957 21.7893 2.96086 21.4142 2.58579C21.0391 2.21071 20.5304 2 20 2ZM4 20V4H20V20H4Z" fill="black"/>
<path d="M14 9C14.2652 9 14.5196 8.89464 14.7071 8.70711C14.8946 8.51957 15 8.26522 15 8C15 7.73478 14.8946 7.48043 14.7071 7.29289C14.5196 7.10536 14.2652 7 14 7H13V6C13 5.73478 12.8946 5.48043 12.7071 5.29289C12.5196 5.10536 12.2652 5 12 5C11.7348 5 11.4804 5.10536 11.2929 5.29289C11.1054 5.48043 11 5.73478 11 6V7C10.4696 7 9.96086 7.21071 9.58579 7.58579C9.21071 7.96086 9 8.46957 9 9V11C9 11.5304 9.21071 12.0391 9.58579 12.4142C9.96086 12.7893 10.4696 13 11 13H13V15H10C9.73478 15 9.48043 15.1054 9.29289 15.2929C9.10536 15.4804 9 15.7348 9 16C9 16.2652 9.10536 16.5196 9.29289 16.7071C9.48043 16.8946 9.73478 17 10 17H11V18C11 18.2652 11.1054 18.5196 11.2929 18.7071C11.4804 18.8946 11.7348 19 12 19C12.2652 19 12.5196 18.8946 12.7071 18.7071C12.8946 18.5196 13 18.2652 13 18V17C13.5304 17 14.0391 16.7893 14.4142 16.4142C14.7893 16.0391 15 15.5304 15 15V13C15 12.4696 14.7893 11.9609 14.4142 11.5858C14.0391 11.2107 13.5304 11 13 11H11V9H14Z" fill="black"/>
</svg>
