<svg width="100" height="100" viewBox="0 0 100 100" fill="none" xmlns="http://www.w3.org/2000/svg">
<path d="M84.7031 25.7344V28.3281H1.14062V16.625C1.14476 15.3223 1.66514 14.0745 2.58772 13.1548C3.5103 12.2352 4.75984 11.7187 6.0625 11.7188H33.375C34.2869 11.7207 35.1803 11.976 35.9555 12.456C36.7308 12.9361 37.3575 13.6221 37.7656 14.4375L39.6094 18.1094C40.0175 18.9248 40.6442 19.6108 41.4195 20.0908C42.1947 20.5709 43.0881 20.8262 44 20.8281H79.7812C81.0839 20.8281 82.3335 21.3445 83.256 22.2642C84.1786 23.1838 84.699 24.4317 84.7031 25.7344Z" fill="#118ACB"/>
<path d="M84.7031 31.8125V47.1094C80.8115 46.1762 76.742 46.2912 72.9092 47.4427C69.0765 48.5943 65.6174 50.7411 62.8845 53.6646C60.1515 56.5882 58.2423 60.1838 57.3514 64.0854C56.4604 67.9869 56.6195 72.055 57.8125 75.875H6.0625C4.75714 75.875 3.50524 75.3564 2.58221 74.4334C1.65918 73.5104 1.14063 72.2585 1.14062 70.9531V31.8906L84.7031 31.8125Z" fill="#3B4551"/>
<path d="M98.7969 67.5937C98.5042 63.9492 97.1745 60.4646 94.9651 57.5514C92.7557 54.6383 89.7587 52.4183 86.3282 51.1536C82.8976 49.889 79.1768 49.6325 75.6052 50.4144C72.0335 51.1964 68.7603 52.9842 66.172 55.5666C63.5837 58.149 61.7886 61.4182 60.9985 64.988C60.2084 68.5578 60.4565 72.2792 61.7133 75.7126C62.9702 79.146 65.1834 82.148 68.0915 84.3641C70.9996 86.5801 74.4812 87.9176 78.125 88.2187C80.8905 88.4338 83.6698 88.0483 86.2722 87.0886C88.8747 86.1289 91.2389 84.6176 93.2025 82.6584C95.1661 80.6993 96.6827 78.3386 97.6483 75.7383C98.614 73.138 99.0058 70.3596 98.7969 67.5937ZM89.5157 80.7343C89.0735 81.5572 88.3602 82.2019 87.4969 82.5588C86.6336 82.9157 85.6733 82.9629 84.7791 82.6925C83.8849 82.422 83.1118 81.8505 82.591 81.0749C82.0703 80.2993 81.8338 79.3675 81.9219 78.4374L71.5157 72.6249L71.3438 72.7343C70.7281 73.0821 70.032 73.2626 69.3248 73.2576C68.6177 73.2527 67.9241 73.0625 67.3134 72.7061C66.7026 72.3496 66.1959 71.8394 65.8437 71.2261C65.4916 70.6128 65.3063 69.918 65.3063 69.2108C65.3063 68.5037 65.4916 67.8089 65.8437 67.1956C66.1959 66.5824 66.7026 66.0721 67.3134 65.7156C67.9241 65.3592 68.6177 65.169 69.3248 65.1641C70.032 65.1591 70.7281 65.3396 71.3438 65.6874L81.7813 59.8593C81.6935 58.944 81.92 58.026 82.4236 57.2566C82.9272 56.4873 83.6777 55.9123 84.5517 55.6265C85.4257 55.3407 86.3709 55.361 87.2318 55.6841C88.0927 56.0073 88.8178 56.6139 89.2879 57.4043C89.7579 58.1946 89.9448 59.1214 89.8177 60.0321C89.6906 60.9428 89.2572 61.7831 88.5888 62.4146C87.9204 63.046 87.0569 63.4311 86.1404 63.5062C85.224 63.5814 84.3093 63.3422 83.5469 62.828L73.4375 68.5624C73.4931 68.9458 73.4931 69.3352 73.4375 69.7187L83.7031 75.453C84.453 74.9274 85.3591 74.6716 86.2731 74.7275C87.1872 74.7834 88.0553 75.1476 88.7355 75.7608C89.4158 76.3739 89.868 77.1996 90.0182 78.103C90.1684 79.0064 90.0078 79.934 89.5625 80.7343H89.5157Z" fill="#118ACB"/>
</svg>
