<svg width="100" height="100" viewBox="0 0 100 100" fill="none" xmlns="http://www.w3.org/2000/svg">
<g clip-path="url(#clip0_2314_104)">
<path d="M46.8531 73.2178L49.1044 74.7617L46.172 83.1212C45.6008 84.7553 44.4597 86.1314 42.9558 86.9996L26.8749 96.2816C26.3395 96.5911 25.7446 96.7848 25.1289 96.8502C24.5132 96.9156 23.8905 96.8512 23.3015 96.6611C22.7125 96.4711 22.1704 96.1596 21.7104 95.7472C21.2504 95.3347 20.8829 94.8304 20.6318 94.2671C20.2252 93.2412 20.2063 92.1035 20.5786 91.0648C20.9508 90.0261 21.689 89.1571 22.6561 88.6188L37.5829 79.9205L38.5289 71.9376C38.7946 72.1249 39.08 72.2827 39.3802 72.4082C39.655 72.5226 39.9401 72.6109 40.2316 72.6718H40.7045C42.1516 73.004 43.6281 73.1932 45.1126 73.2367C45.6922 73.2817 46.2746 73.2754 46.8531 73.2178ZM79.3365 47.3676C78.9408 48.2639 78.2099 48.9716 77.2987 49.3407C76.3875 49.7097 75.3677 49.7111 74.4555 49.3445L60.4935 43.4891L50.1639 33.7552C49.6605 33.2803 49.2778 32.6931 49.0477 32.0419C48.7003 31.0814 48.7004 30.0305 49.0479 29.0701C49.3954 28.1097 50.0686 27.2999 50.9515 26.7803C51.8344 26.2608 52.8717 26.0638 53.8848 26.2235C54.8979 26.3832 55.8233 26.8894 56.5016 27.6551L65.034 37.2948L77.4257 42.4912C78.3264 42.885 79.0375 43.6124 79.4084 44.5192C79.7792 45.426 79.7806 46.4409 79.4122 47.3487L79.3365 47.3676ZM44.4883 21.875C43.5663 23.009 42.9654 24.3675 42.7477 25.81L41.518 33.5669L39.7775 34.5836L32.3235 45.7107C32.1027 46.2152 31.7735 46.6654 31.359 47.0296C30.9446 47.3937 30.4549 47.6631 29.9246 47.8187C29.3942 47.9743 28.8361 48.0123 28.2894 47.9301C27.7427 47.8479 27.2207 47.6475 26.7602 47.3429C26.2998 47.0383 25.9119 46.637 25.6241 46.1672C25.3363 45.6974 25.1554 45.1706 25.0942 44.6237C25.033 44.0768 25.0929 43.5233 25.2698 43.002C25.4468 42.4807 25.7363 42.0043 26.1182 41.6063L34.5749 29.086L37.9424 26.676L41.0829 24.4167L44.4883 21.875Z" fill="#3B4551"/>
<path d="M65.5995 11.0516C66.317 6.1627 62.9355 1.61777 58.0466 0.900196C53.1577 0.182626 48.6128 3.56415 47.8952 8.45305C47.1777 13.3419 50.5592 17.8869 55.4481 18.6045C60.337 19.322 64.8819 15.9405 65.5995 11.0516Z" fill="#3B4551"/>
<path d="M49.0783 25.7884C48.4275 26.3892 47.9095 27.1112 47.5556 27.9108C47.2017 28.7105 47.0193 29.5711 47.0193 30.4408C47.0193 31.3105 47.2017 32.1712 47.5556 32.9708C47.9095 33.7705 48.4275 34.4925 49.0783 35.0933L58.5683 43.7046L56.3951 53.125L40.625 50.0812L44.8118 25.8269C45.0203 24.4853 45.6599 23.2408 46.6401 22.2694C47.6204 21.2981 48.8917 20.6489 50.2745 20.4136H50.434C51.4014 20.2472 52.3947 20.2866 53.3448 20.5291C55.5291 21.0305 57.4913 22.1911 58.9471 23.8427C59.627 24.5768 60.173 25.4171 60.562 26.3278C60.8621 27.0079 60.9853 27.7487 60.9208 28.4855L58.8075 26.1544C58.2152 25.4994 57.4905 24.9683 56.6779 24.5939C55.8653 24.2195 54.982 24.0098 54.0824 23.9775H53.8033C52.931 23.9626 52.0642 24.1149 51.2531 24.4257C50.4421 24.7366 49.7029 25.1997 49.0783 25.7884Z" fill="#3B4551"/>
<path d="M56.25 56.0647C56.1553 56.517 55.871 57.9491 55.53 59.5509C54.6949 58.8917 53.7362 58.4043 52.7099 58.1173C51.6835 57.8303 50.6099 57.7493 49.5518 57.8791C48.4936 58.0089 47.472 58.3469 46.5465 58.8733C45.621 59.3997 44.8102 60.1041 44.1612 60.9454C43.7978 61.413 43.4865 61.9185 43.2327 62.4529C42.5055 64.0372 42.3174 65.8142 42.6969 67.5144C43.0764 69.2147 44.0029 70.7455 45.3359 71.875C44.1329 71.7688 42.9371 71.5926 41.7548 71.3474L41.2621 71.1966C40.6902 70.9793 40.2003 70.5909 39.86 70.0848C39.156 68.9617 38.9055 67.6152 39.1589 66.316L41.2432 53.125L56.25 56.0647Z" fill="#118ACB"/>
<path d="M66.6389 97.8157C66.2205 98.5268 65.6094 99.1073 64.875 99.4914C64.1405 99.8755 63.3122 100.048 62.484 99.9886C61.3613 99.8732 60.3204 99.3536 59.5582 98.5284C58.796 97.7031 58.3655 96.6294 58.3482 95.5106L57.6811 78.2975L46.4172 70.5507C45.7285 70.0811 45.1435 69.4774 44.6979 68.7763C44.2523 68.0752 43.9553 67.2916 43.8251 66.473C43.6949 65.6545 43.7343 64.8183 43.9407 64.0153C44.1471 63.2123 44.5163 62.4594 45.0258 61.8025L45.4261 61.3301C45.9994 60.7167 46.6938 60.2266 47.4661 59.8903C48.2384 59.554 49.0722 59.3786 49.9158 59.3751C50.7593 59.3715 51.5946 59.5399 52.3697 59.8697C53.1449 60.1995 53.8434 60.6837 54.422 61.2923L64.5614 72.119C65.7383 73.3992 66.4143 75.0546 66.4673 76.786L67.1725 95.3405C67.244 96.1997 67.0584 97.0606 66.6389 97.8157Z" fill="#3B4551"/>
</g>
<defs>
<clipPath id="clip0_2314_104">
<rect width="100" height="100" fill="white"/>
</clipPath>
</defs>
</svg>
